<svg xmlns="http://www.w3.org/2000/svg" viewBox="0 0 32 32"><circle cx="16" cy="16" r="16" fill="#F7931A"/><path fill="#FFF" d="M19.8 17.6c.3-2-1.2-3.1-3.3-3.8l.7-2.9-1.8-.5-.7 2.8c-.5-.1-1-.2-1.6-.3l.7-2.9-1.8-.5-.7 2.9c-.4-.1-.8-.2-1.2-.3l-.9 3.5s.5.1.5.1c.3.1.4.3.4.6l-1 4.1c0 .4-.2.6-.5.7 0 0-.5-.1-.5-.1l-.6 2.4c.3.1.7.2 1 .3l-.7 2.8 1.8.5.7-2.8c.5.1 1 .2 1.6.3l-.7 2.9 1.8.5.7-2.9c2.9.5 5 .3 5.9-1.6.7-1.5.4-3-1.2-3.7.8-.4 1.2-1 1.3-2zm-3.7 4.1c-.5 1.5-3.7.7-4.7.5l.8-3.1c1 .3 4.4.9 3.9 2.6zm.5-4.8c-.5 1.3-3.1.7-4 .5l.7-2.9c.9.2 3.8.7 3.3 2.4z"/></svg>